# xmcd
#
# Track frame offsets:
#	150
#	13770
#	28147
#	41410
#	55521
#	71015
#	84906
#	100602
#	115016
#	127211
#	143306
#
# Disc length: 2066 seconds
#
# Revision: 1
# Processed by: cddbd v1.5.2PL0 Copyright (c) Steve Scherf et al.
# Submitted via: audiograbber 1.83.01
#
DISCID=8408100b
DTITLE=Rick Jones - Honky Tonk Stardust Cowboy
DYEAR=2013
DGENRE=Country
TTITLE0=Honky Tonk Stardust Cowboy
TTITLE1=I'll Just Leave It Up to You
TTITLE2=Hearts Aren't Made to Break They're Made to Love
TTITLE3=Just One More
TTITLE4=Real Old Fashioned Broken Heart
TTITLE5=Right Side of Wrong
TTITLE6=Sometimes I Dream
TTITLE7=Walk Softly on the Bridges
TTITLE8=We've Just Learned to Break Each Others Heart
TTITLE9=Little By Little
TTITLE10=What Am I Gonna Do
EXTD=
EXTT0=
EXTT1=
EXTT2=
EXTT3=
EXTT4=
EXTT5=
EXTT6=
EXTT7=
EXTT8=
EXTT9=
EXTT10=
PLAYORDER=
